<svg xmlns="http://www.w3.org/2000/svg" width="48" height="48" enable-background="new 0 0 48 48" viewBox="0 0 48 48"><path d="M13 22H7c-.553 0-1-.447-1-1s.447-1 1-1h6c.553 0 1 .447 1 1S13.553 22 13 22zM13 48H7c-.553 0-1-.447-1-1s.447-1 1-1h6c.553 0 1 .447 1 1S13.553 48 13 48zM41 48h-6c-.553 0-1-.447-1-1s.447-1 1-1h6c.553 0 1 .447 1 1S41.553 48 41 48z"/><path d="M10 30c-.553 0-1-.447-1-1v-8c0-.553.447-1 1-1s1 .447 1 1v8C11 29.553 10.553 30 10 30zM10 48c-.553 0-1-.447-1-1v-8c0-.553.447-1 1-1s1 .447 1 1v8C11 47.553 10.553 48 10 48z"/><path d="M15.054 28.479C14.872 28.182 14.549 28 14.2 28H5c-.553 0-1 .447-1 1v10c0 .553.447 1 1 1h9.2c.349 0 .672-.182.854-.479.182-.298.195-.668.036-.979C14.366 37.136 14 35.606 14 34s.366-3.136 1.09-4.543C15.249 29.146 15.235 28.776 15.054 28.479zM43 28h-9.2c-.349 0-.672.182-.854.479-.182.298-.195.668-.036.979C33.634 30.864 34 32.394 34 34s-.366 3.136-1.09 4.543c-.159.311-.146.681.036.979C33.128 39.818 33.451 40 33.8 40H43c.553 0 1-.447 1-1V29C44 28.447 43.553 28 43 28zM41 22h-6c-.553 0-1-.447-1-1s.447-1 1-1h6c.553 0 1 .447 1 1S41.553 22 41 22z"/><path d="M38 30c-.553 0-1-.447-1-1v-8c0-.553.447-1 1-1s1 .447 1 1v8C39 29.553 38.553 30 38 30zM38 48c-.553 0-1-.447-1-1v-8c0-.553.447-1 1-1s1 .447 1 1v8C39 47.553 38.553 48 38 48zM34.69 28.545C32.627 24.508 28.53 22 24 22s-8.627 2.508-10.689 6.543C12.453 30.212 12 32.1 12 34s.453 3.788 1.31 5.455C15.373 43.492 19.47 46 24 46s8.627-2.508 10.689-6.543C35.547 37.788 36 35.9 36 34S35.547 30.212 34.69 28.545zM24 39c-2.757 0-5-2.243-5-5s2.243-5 5-5 5 2.243 5 5S26.757 39 24 39zM27.636 10.557c-.255 0-.509-.097-.704-.29L18.295 1.71c-.392-.389-.395-1.021-.006-1.414s1.021-.395 1.414-.006l8.637 8.557c.392.389.395 1.021.006 1.414C28.15 10.458 27.894 10.557 27.636 10.557z"/><path d="M36.121 12.385l-4.242-4.242c-1.171-1.171-3.074-1.169-4.243 0l-1.414 1.414c-1.17 1.17-1.17 3.072 0 4.242l4.243 4.243c.584.585 1.353.877 2.12.877.769 0 1.537-.292 2.122-.877l1.414-1.414C36.687 16.062 37 15.308 37 14.506 37 13.705 36.687 12.951 36.121 12.385zM20.443 8.143c-1.17-1.17-3.072-1.17-4.242 0l-4.244 4.242c-1.168 1.171-1.168 3.073.001 4.242l1.415 1.415c.585.585 1.353.877 2.121.877.768 0 1.536-.292 2.121-.876 0-.001 0-.001 0-.001l4.242-4.243c1.17-1.17 1.17-3.072 0-4.242L20.443 8.143z"/><path d="M20.443,10.557c-0.256,0-0.512-0.098-0.707-0.293c-0.391-0.391-0.391-1.023,0-1.414l8.556-8.557
	c0.391-0.391,1.023-0.391,1.414,0s0.391,1.023,0,1.414l-8.556,8.557C20.955,10.459,20.699,10.557,20.443,10.557z"/></svg>